<?xml version="1.0" standalone="no"?>
<!DOCTYPE svg PUBLIC "-//W3C//DTD SVG 20010904//EN"
 "http://www.w3.org/TR/2001/REC-SVG-20010904/DTD/svg10.dtd">
<svg version="1.0" xmlns="http://www.w3.org/2000/svg"
 width="1024.000000pt" height="1024.000000pt" viewBox="0 0 1024.000000 1024.000000"
 preserveAspectRatio="xMidYMid meet">
<metadata>
Created by potrace 1.11, written by Peter Selinger 2001-2013
</metadata>
<g transform="translate(0.000000,1024.000000) scale(0.100000,-0.100000)"
fill="#000000" stroke="none">
<path d="M0 5120 l0 -5120 5120 0 5120 0 0 5120 0 5120 -5120 0 -5120 0 0
-5120z m3288 3207 c238 -96 399 -294 463 -572 10 -44 44 -210 75 -370 46 -240
217 -1067 227 -1099 2 -5 32 31 67 80 343 475 832 983 1337 1387 411 329 741
509 1002 547 235 35 469 -64 545 -229 27 -60 28 -190 2 -276 -86 -290 -424
-779 -878 -1275 -150 -164 -773 -749 -1138 -1069 -157 -137 -377 -317 -430
-352 l-24 -16 54 -13 c160 -37 360 -135 608 -299 307 -202 486 -309 909 -542
335 -184 852 -496 1113 -672 94 -64 264 -228 342 -331 71 -94 159 -271 189
-381 31 -112 31 -241 0 -312 -30 -67 -112 -145 -193 -183 -147 -69 -391 -102
-602 -81 -274 26 -506 114 -810 305 -205 130 -1317 779 -1457 852 -32 16 -32
16 -26 -8 4 -12 30 -138 59 -278 49 -242 52 -263 52 -415 1 -177 -13 -261 -65
-392 -93 -236 -280 -420 -446 -440 -261 -30 -617 260 -814 664 -78 162 -132
339 -189 623 -29 140 -112 521 -186 845 -340 1489 -482 2191 -585 2905 -31
207 -33 489 -5 635 49 263 150 470 305 626 80 80 142 122 226 152 70 25 189
18 273 -16z"/>
</g>
</svg>
